<?xml version="1.0"?>
<svg xmlns="http://www.w3.org/2000/svg" id="filled_outline" data-name="filled outline" viewBox="0 0 512 512" width="512" height="512"><path d="M295.98557,336l13.65686,13.65685A8,8,0,0,0,315.29928,352h17.37258a8,8,0,0,0,5.65686-2.34315L351.98557,336h32V304h-88Z" style="fill:#8c410b"/><path d="M487.98557,312v32a8,8,0,0,1-8,8H435.29928a8,8,0,0,1-5.65685-2.34315L415.98557,336h-32V312Z" style="fill:#8c410b"/><path d="M31.98557,144h312a8,8,0,0,1,8,8V304a0,0,0,0,1,0,0h-328a0,0,0,0,1,0,0V152A8,8,0,0,1,31.98557,144Z" style="fill:#eeac13"/><path d="M311.98557,304v12.68629a8,8,0,0,1-2.34314,5.65686L295.98557,336h-24V304Z" style="fill:#662702"/><path d="M351.98557,312h136V260.94427a8,8,0,0,0-4.42229-7.15542L471.98557,248,457.809,205.47018A8,8,0,0,0,450.2195,200H351.98557Z" style="fill:#c47010"/><circle cx="383.98557" cy="336" r="32" style="fill:#efe8e0"/><path d="M351.98557,160h28.82286a48,48,0,0,1,41.15967,23.3042L431.98557,200h-80Z" style="fill:#8c410b"/><path d="M31.98557,336a8,8,0,0,1-8-8V304h248v32Z" style="fill:#c47010"/><path d="M403.18577,242.3999l26.6665,20A7.99953,7.99953,0,0,0,434.65208,264h18.02a7.99958,7.99958,0,0,0,5.65673-2.34326L471.98557,248l-14.17675-42.52979A7.99947,7.99947,0,0,0,450.21946,200H399.98557v36A7.99927,7.99927,0,0,0,403.18577,242.3999Z" style="fill:#b6f7f5"/><circle cx="111.98557" cy="336" r="32" style="fill:#efe8e0"/><circle cx="112" cy="336" r="8"/><path d="M487.15625,246.63281l-8.61719-4.30469-13.125-39.38281A15.97883,15.97883,0,0,0,450.23438,192H436.53027l-7.68652-12.8125A56.30351,56.30351,0,0,0,380.82031,152H360a16.01833,16.01833,0,0,0-16-16H32a16.01833,16.01833,0,0,0-16,16V328a16.01833,16.01833,0,0,0,16,16H72.80859a39.99948,39.99948,0,0,0,78.38282,0H292.6875L304,355.3125A16.09842,16.09842,0,0,0,315.3125,360h17.375A16.09842,16.09842,0,0,0,344,355.3125l3.36328-3.36328a39.92987,39.92987,0,0,0,73.27344,0L424,355.3125A16.09842,16.09842,0,0,0,435.3125,360H480a16.01833,16.01833,0,0,0,16-16V260.94531A15.91514,15.91514,0,0,0,487.15625,246.63281ZM480,260.94531V304H408v.20459a39.2046,39.2046,0,0,0-48,0V208h32v28a16.0529,16.0529,0,0,0,6.40625,12.79688L425.0625,268.793A16.0674,16.0674,0,0,0,434.66406,272H452.6875A16.09842,16.09842,0,0,0,464,267.3125l9.57812-9.57812Zm-17.15039-15.10742L452.6875,256H434.66406L408,236V208h42.23438ZM380.82031,168A40.21906,40.21906,0,0,1,415.125,187.42188L417.87158,192H360V168ZM32,152H344V296H32ZM292.6875,328H280V312h24v4.6875ZM32,312H80.20459a39.641,39.641,0,0,0-7.396,16H32Zm80,48a24,24,0,1,1,24-24A24.02624,24.02624,0,0,1,112,360Zm152-32H151.19141a39.641,39.641,0,0,0-7.396-16H264Zm68.6875,16h-17.375l-8-8,8-8A15.89068,15.89068,0,0,0,320,316.6875V312h24v20.6875ZM384,360a24,24,0,1,1,24-24A24.02624,24.02624,0,0,1,384,360Zm51.3125-16-11.68506-11.68506A39.71646,39.71646,0,0,0,420.60938,320H480v24Z"/><circle cx="384" cy="336" r="8"/></svg>
